<?xml version="1.0" encoding="utf-8"?>
<!-- Generator: Adobe Illustrator 22.1.0, SVG Export Plug-In . SVG Version: 6.00 Build 0)  -->
<svg version="1.1" id="Layer_1" xmlns="http://www.w3.org/2000/svg" xmlns:xlink="http://www.w3.org/1999/xlink" x="0px" y="0px"
	 viewBox="0 0 100 100" style="enable-background:new 0 0 100 100;" xml:space="preserve">
<style type="text/css">
	.st0{fill:#F7931E;}
</style>
<g>
	<g>
		<path class="st0" d="M104,79.8c-0.4,0-0.8-0.3-0.8-0.8V28c0-0.4,0.3-0.8,0.8-0.8h24c0.4,0,0.8,0.3,0.8,0.8v51
			c0,0.4-0.3,0.8-0.8,0.8H104z"/>
		<path d="M128,27.5c0.3,0,0.5,0.2,0.5,0.5v51c0,0.3-0.2,0.5-0.5,0.5h-24c-0.3,0-0.5-0.2-0.5-0.5V28c0-0.3,0.2-0.5,0.5-0.5H128
			 M128,27h-24c-0.6,0-1,0.4-1,1v51c0,0.6,0.4,1,1,1h24c0.6,0,1-0.4,1-1V28C129,27.4,128.6,27,128,27L128,27z"/>
	</g>
	<g>
		<path class="st0" d="M102,84.8c-0.4,0-0.8-0.3-0.8-0.8v-6c0-0.4,0.3-0.8,0.8-0.8h28c0.4,0,0.8,0.3,0.8,0.8v6
			c0,0.4-0.3,0.8-0.8,0.8H102z"/>
		<path d="M130,77.5c0.3,0,0.5,0.2,0.5,0.5v6c0,0.3-0.2,0.5-0.5,0.5h-28c-0.3,0-0.5-0.2-0.5-0.5v-6c0-0.3,0.2-0.5,0.5-0.5H130
			 M130,77h-28c-0.6,0-1,0.4-1,1v6c0,0.6,0.4,1,1,1h28c0.6,0,1-0.4,1-1v-6C131,77.4,130.6,77,130,77L130,77z"/>
	</g>
</g>
<g>
	<g>
		<path class="st0" d="M37.1,79.8c-0.4,0-0.7-0.3-0.7-0.7l-0.1-51c0-0.4,0.3-0.8,0.7-0.8l24-0.1c0.4,0,0.8,0.3,0.8,0.7l0.1,51
			c0,0.2-0.1,0.4-0.2,0.5c-0.1,0.1-0.3,0.2-0.5,0.2L37.1,79.8z"/>
		<path d="M60.9,27.5c0.3,0,0.5,0.2,0.5,0.5l0.1,51c0,0.1-0.1,0.3-0.1,0.4c-0.1,0.1-0.2,0.1-0.4,0.1l-24,0.1c-0.3,0-0.5-0.2-0.5-0.5
			l-0.1-51c0-0.1,0.1-0.3,0.1-0.4c0.1-0.1,0.2-0.1,0.4-0.1L60.9,27.5L60.9,27.5 M60.9,27C60.9,27,60.9,27,60.9,27l-24,0.1
			c-0.6,0-1,0.5-1,1l0.1,51c0,0.6,0.4,1,1,1c0,0,0,0,0,0l24-0.1c0.6,0,1-0.5,1-1l-0.1-51C61.9,27.4,61.5,27,60.9,27L60.9,27z"/>
	</g>
	<g>
		<path class="st0" d="M34.9,29.8c-0.4,0-0.7-0.3-0.7-0.7l0-6c0-0.4,0.3-0.8,0.7-0.8l28-0.1c0.4,0,0.8,0.3,0.8,0.7l0,6
			c0,0.2-0.1,0.4-0.2,0.5c-0.1,0.1-0.3,0.2-0.5,0.2L34.9,29.8L34.9,29.8z"/>
		<path d="M62.9,22.5c0.3,0,0.5,0.2,0.5,0.5l0,6c0,0.1-0.1,0.3-0.1,0.4c-0.1,0.1-0.2,0.1-0.4,0.1l-28,0.1c-0.3,0-0.5-0.2-0.5-0.5
			l0-6c0-0.1,0.1-0.3,0.1-0.4c0.1-0.1,0.2-0.1,0.4-0.1L62.9,22.5L62.9,22.5 M62.9,22C62.9,22,62.9,22,62.9,22l-28,0.1
			c-0.6,0-1,0.5-1,1l0,6c0,0.6,0.4,1,1,1c0,0,0,0,0,0l28-0.1c0.6,0,1-0.5,1-1l0-6C63.9,22.4,63.5,22,62.9,22L62.9,22z"/>
	</g>
</g>
</svg>
