<?xml version="1.0" encoding="utf-8"?>
<!-- Generator: Adobe Illustrator 22.1.0, SVG Export Plug-In . SVG Version: 6.00 Build 0)  -->
<svg version="1.1" id="Layer_1" xmlns="http://www.w3.org/2000/svg" xmlns:xlink="http://www.w3.org/1999/xlink" x="0px" y="0px"
	 viewBox="0 0 100 100" style="enable-background:new 0 0 100 100;" xml:space="preserve">
<style type="text/css">
	.st0{fill:#F7931E;}
</style>
<g>
	<g>
		<path class="st0" d="M37,73.8c-0.4,0-0.8-0.3-0.8-0.8V22c0-0.4,0.3-0.8,0.8-0.8h24c0.4,0,0.8,0.3,0.8,0.8v51
			c0,0.4-0.3,0.8-0.8,0.8H37z"/>
		<path d="M61,21.5c0.3,0,0.5,0.2,0.5,0.5v51c0,0.3-0.2,0.5-0.5,0.5H37c-0.3,0-0.5-0.2-0.5-0.5V22c0-0.3,0.2-0.5,0.5-0.5H61 M61,21
			H37c-0.6,0-1,0.4-1,1v51c0,0.6,0.4,1,1,1h24c0.6,0,1-0.4,1-1V22C62,21.4,61.6,21,61,21L61,21z"/>
	</g>
	<g>
		<path class="st0" d="M35,78.8c-0.4,0-0.8-0.3-0.8-0.8v-6c0-0.4,0.3-0.8,0.8-0.8h28c0.4,0,0.8,0.3,0.8,0.8v6c0,0.4-0.3,0.8-0.8,0.8
			H35z"/>
		<path d="M63,71.5c0.3,0,0.5,0.2,0.5,0.5v6c0,0.3-0.2,0.5-0.5,0.5H35c-0.3,0-0.5-0.2-0.5-0.5v-6c0-0.3,0.2-0.5,0.5-0.5H63 M63,71
			H35c-0.6,0-1,0.4-1,1v6c0,0.6,0.4,1,1,1h28c0.6,0,1-0.4,1-1v-6C64,71.4,63.6,71,63,71L63,71z"/>
	</g>
</g>
<g>
	<g>
		<path class="st0" d="M-29.9,78.8c-0.4,0-0.7-0.3-0.7-0.7l-0.1-51c0-0.4,0.3-0.8,0.7-0.8l24-0.1c0.4,0,0.8,0.3,0.8,0.7l0.1,51
			c0,0.2-0.1,0.4-0.2,0.5c-0.1,0.1-0.3,0.2-0.5,0.2L-29.9,78.8z"/>
		<path d="M-6.1,26.5c0.3,0,0.5,0.2,0.5,0.5l0.1,51c0,0.1-0.1,0.3-0.1,0.4c-0.1,0.1-0.2,0.1-0.4,0.1l-24,0.1c-0.3,0-0.5-0.2-0.5-0.5
			l-0.1-51c0-0.1,0.1-0.3,0.1-0.4c0.1-0.1,0.2-0.1,0.4-0.1L-6.1,26.5L-6.1,26.5 M-6.1,26C-6.1,26-6.1,26-6.1,26l-24,0.1
			c-0.6,0-1,0.5-1,1l0.1,51c0,0.6,0.4,1,1,1c0,0,0,0,0,0l24-0.1c0.6,0,1-0.5,1-1l-0.1-51C-5.1,26.4-5.5,26-6.1,26L-6.1,26z"/>
	</g>
	<g>
		<path class="st0" d="M-32.1,28.8c-0.4,0-0.7-0.3-0.7-0.7l0-6c0-0.4,0.3-0.8,0.7-0.8l28-0.1c0.4,0,0.8,0.3,0.8,0.7l0,6
			c0,0.2-0.1,0.4-0.2,0.5c-0.1,0.1-0.3,0.2-0.5,0.2L-32.1,28.8L-32.1,28.8z"/>
		<path d="M-4.1,21.5c0.3,0,0.5,0.2,0.5,0.5l0,6c0,0.1-0.1,0.3-0.1,0.4c-0.1,0.1-0.2,0.1-0.4,0.1l-28,0.1c-0.3,0-0.5-0.2-0.5-0.5
			l0-6c0-0.1,0.1-0.3,0.1-0.4c0.1-0.1,0.2-0.1,0.4-0.1L-4.1,21.5L-4.1,21.5 M-4.1,21C-4.1,21-4.1,21-4.1,21l-28,0.1
			c-0.6,0-1,0.5-1,1l0,6c0,0.6,0.4,1,1,1c0,0,0,0,0,0l28-0.1c0.6,0,1-0.5,1-1l0-6C-3.1,21.4-3.5,21-4.1,21L-4.1,21z"/>
	</g>
</g>
</svg>
